<svg id="Group_1" data-name="Group 1" xmlns="http://www.w3.org/2000/svg" width="88" height="78" viewBox="0 0 88 78">
  <circle id="Ellipse_1" data-name="Ellipse 1" cx="3" cy="3" r="3" fill="#e2daeb"/>
  <circle id="Ellipse_2" data-name="Ellipse 2" cx="3" cy="3" r="3" transform="translate(0 24)" fill="#e2daeb"/>
  <circle id="Ellipse_3" data-name="Ellipse 3" cx="3" cy="3" r="3" transform="translate(0 48)" fill="#e2daeb"/>
  <circle id="Ellipse_4" data-name="Ellipse 4" cx="3" cy="3" r="3" transform="translate(0 72)" fill="#e2daeb"/>
  <circle id="Ellipse_5" data-name="Ellipse 5" cx="3" cy="3" r="3" transform="translate(20)" fill="#e2daeb"/>
  <circle id="Ellipse_6" data-name="Ellipse 6" cx="3" cy="3" r="3" transform="translate(20 24)" fill="#e2daeb"/>
  <circle id="Ellipse_7" data-name="Ellipse 7" cx="3" cy="3" r="3" transform="translate(20 48)" fill="#e2daeb"/>
  <circle id="Ellipse_8" data-name="Ellipse 8" cx="3" cy="3" r="3" transform="translate(20 72)" fill="#e2daeb"/>
  <circle id="Ellipse_9" data-name="Ellipse 9" cx="3" cy="3" r="3" transform="translate(41)" fill="#e2daeb"/>
  <circle id="Ellipse_10" data-name="Ellipse 10" cx="3" cy="3" r="3" transform="translate(41 24)" fill="#e2daeb"/>
  <circle id="Ellipse_11" data-name="Ellipse 11" cx="3" cy="3" r="3" transform="translate(41 48)" fill="#e2daeb"/>
  <circle id="Ellipse_12" data-name="Ellipse 12" cx="3" cy="3" r="3" transform="translate(41 72)" fill="#e2daeb"/>
  <circle id="Ellipse_13" data-name="Ellipse 13" cx="3" cy="3" r="3" transform="translate(61)" fill="#e2daeb"/>
  <circle id="Ellipse_14" data-name="Ellipse 14" cx="3" cy="3" r="3" transform="translate(61 24)" fill="#e2daeb"/>
  <circle id="Ellipse_15" data-name="Ellipse 15" cx="3" cy="3" r="3" transform="translate(61 48)" fill="#e2daeb"/>
  <circle id="Ellipse_16" data-name="Ellipse 16" cx="3" cy="3" r="3" transform="translate(61 72)" fill="#e2daeb"/>
  <circle id="Ellipse_17" data-name="Ellipse 17" cx="3" cy="3" r="3" transform="translate(82)" fill="#e2daeb"/>
  <circle id="Ellipse_18" data-name="Ellipse 18" cx="3" cy="3" r="3" transform="translate(82 24)" fill="#e2daeb"/>
  <circle id="Ellipse_19" data-name="Ellipse 19" cx="3" cy="3" r="3" transform="translate(82 48)" fill="#e2daeb"/>
  <circle id="Ellipse_20" data-name="Ellipse 20" cx="3" cy="3" r="3" transform="translate(82 72)" fill="#e2daeb"/>
</svg>
